# xmcd CD database file
#
# Track frame offsets:
#	150
#	18267
#	34862
#	51205
#	69227
#	86122
#	102230
#	121385
#	139785
#	158500
#
# Disc length: 2250 seconds
#
# Revision: 2
# Processed by: cddbd v1.4b41PL1 Copyright (c) Steve Scherf et al.
# Submitted via: Feurio! 1.52 - http://www.feurio.com
#
DISCID=7b08c80a
DTITLE=David Hasselhoff - It's Music
DYEAR=1900
DGENRE=
TTITLE0=Our First Night Together
TTITLE1=Crazy On A Saturday Night
TTITLE2=Night Rocker
TTITLE3=Do You Love Me ?
TTITLE4=She Cried
TTITLE5=All The Right Moves
TTITLE6=No Way To Be In Love
TTITLE7=Any Kind Of Love
TTITLE8=No Words For Love
TTITLE9=Let It Be Me
EXTD=
EXTT0=
EXTT1=
EXTT2=
EXTT3=
EXTT4=
EXTT5=
EXTT6=
EXTT7=
EXTT8=
EXTT9=
PLAYORDER=
